<?xml version="1.0" encoding="utf-8"?>
<!-- Generator: Adobe Illustrator 25.0.0, SVG Export Plug-In . SVG Version: 6.00 Build 0)  -->
<svg version="1.1" id="Layer_1" xmlns="http://www.w3.org/2000/svg" xmlns:xlink="http://www.w3.org/1999/xlink" x="0px" y="0px"
	 width="200px" height="80px" viewBox="0 0 200 80" style="enable-background:new 0 0 200 80;" xml:space="preserve">
<style type="text/css">
	.st0{fill:#EE4036;}
	.st1{fill:#222832;}
</style>
<g>
	<path class="st0" d="M100,60.8L100,60.8c-11.4,0-20.7-9.2-20.8-20.7c0-0.1,0-0.1,0-0.2v-0.3C79.1,27,73,15.8,63.7,8.6
		c-6.7-5.1-15-8.2-24.1-8.2C17.7,0.4,0,18.1,0,40c0,21.9,17.7,39.6,39.6,39.6c11.1,0,21.2-4.6,28.3-12c-0.6-0.7-1.3-1.3-1.9-2
		c-3.8-4.5-6.6-9.8-8.1-15.7c-3.5,6.5-10.4,11-18.4,11c-11.5,0-20.8-9.3-20.8-20.8c0-11.5,9.3-20.8,20.8-20.8
		c11.4,0,20.6,9.1,20.8,20.5c0,0.1,0,0.2,0,0.3c0,0.1,0,0.1,0,0.2c0,9.7,3.6,18.5,9.4,25.4c7.3,8.6,18.1,14,30.2,14h0
		c0,0,0.1,0,0.1,0V60.8C100.1,60.8,100.1,60.8,100,60.8z"/>
	<path class="st1" d="M181.2,19.2V40c0,11.5-9.3,20.8-20.8,20.8c-11.3,0-20.5-9-20.8-20.3c0-0.2,0-0.4,0-0.6V0.4c0,0,0,0,0,0v0
		c-10.4,0-18.8,8.4-18.8,18.8V40c0,0.2,0,0.4,0,0.6c-0.3,10.1-7.8,18.5-17.6,20v18.9c10.8-0.9,20.3-6.1,26.9-13.9
		c7.3,8.6,18.1,14,30.2,14h0c21.9,0,39.6-17.7,39.6-39.6V0.4C189.6,0.4,181.2,8.8,181.2,19.2z"/>
</g>
</svg>
