<?xml version="1.0" encoding="utf-8"?>
<!-- Generator: Adobe Illustrator 25.0.0, SVG Export Plug-In . SVG Version: 6.00 Build 0)  -->
<svg version="1.1" id="Layer_1" xmlns="http://www.w3.org/2000/svg" xmlns:xlink="http://www.w3.org/1999/xlink" x="0px" y="0px"
	 width="250px" height="160.2px" viewBox="0 0 250 160.2" style="enable-background:new 0 0 250 160.2;" xml:space="preserve">
<style type="text/css">
	.st0{fill:#EE4036;}
	.st1{fill:#222832;}
</style>
<path class="st0" d="M125,75.5L125,75.5c-14.3,0-25.9-11.5-26-25.8c0-0.1,0-0.1,0-0.2v-0.4c-0.1-15.8-7.7-29.9-19.4-38.8
	C71.3,3.8,60.8,0,49.5,0C22.2,0,0,22.2,0,49.5C0,76.8,22.2,99,49.5,99c13.9,0,26.4-5.7,35.4-15c-0.8-0.8-1.6-1.7-2.3-2.5
	c-4.8-5.6-8.3-12.3-10.2-19.6C68,70,59.4,75.5,49.5,75.5c-14.4,0-26-11.7-26-26c0-14.4,11.7-26,26-26c14.2,0,25.8,11.4,26,25.6
	c0,0.1,0,0.3,0,0.4c0,0.1,0,0.1,0,0.2c0.1,12.1,4.5,23.2,11.7,31.8C96.3,92.2,109.9,99,125,99h0c0.1,0,0.1,0,0.2,0V75.5
	C125.1,75.5,125.1,75.5,125,75.5z"/>
<path class="st1" d="M226.6,23.4v26c0,14.4-11.7,26-26,26c-14.2,0-25.7-11.3-26-25.3c0-0.2,0-0.5,0-0.7V0c0,0,0,0,0,0v0
	C161.5,0,151,10.5,151,23.4v26c0,0.2,0,0.5,0,0.7c-0.3,12.7-9.7,23.1-22,25v23.6c13.5-1.1,25.4-7.6,33.7-17.3
	c9.1,10.7,22.6,17.5,37.7,17.5h0c27.3,0,49.5-22.2,49.5-49.5V0C237.1,0,226.6,10.5,226.6,23.4z"/>
<path class="st1" d="M31.8,133.9v0.2v15.3h-4.1v-4.8c-3.4,3.8-7.5,5.7-12.3,5.5c-4.3-0.1-7.9-1.8-10.9-4.9c-3-3.2-4.5-6.9-4.5-11.2
	c0-4.5,1.6-8.4,4.8-11.7c3.2-3.2,7.1-4.8,11.6-4.6c4.3,0.1,8,1.8,11.1,5C30.5,125.8,32,129.6,31.8,133.9z M27.7,133.6
	c-0.1-3.3-1.2-6.1-3.5-8.4c-2.3-2.3-5-3.5-8.1-3.5c-3.3,0-6.1,1.2-8.4,3.5c-2.3,2.3-3.5,5.1-3.5,8.4c-0.1,3.3,1,6.1,3.2,8.6
	c2.2,2.4,4.9,3.7,8.1,3.9c3.4,0.1,6.3-1,8.7-3.6C26.6,140,27.8,137,27.7,133.6z"/>
<path class="st1" d="M43,149.4h-4.1v-41.9H43V149.4z"/>
<path class="st1" d="M61.7,150.1c-7.5,0-11.3-3.2-11.3-9.6v-32.9h4.1v10.8h7.2v3.9h-7.2v17.5c0,4.6,2.4,6.9,7.2,6.9V150.1z"/>
<path class="st1" d="M95.4,133.9v0.2v15.3h-4.1v-4.8c-3.4,3.8-7.5,5.7-12.3,5.5c-4.3-0.1-7.9-1.8-10.9-4.9c-3-3.2-4.5-6.9-4.5-11.2
	c0-4.5,1.6-8.4,4.8-11.7c3.2-3.2,7.1-4.8,11.6-4.6c4.3,0.1,8,1.8,11.1,5C94.1,125.8,95.5,129.6,95.4,133.9z M91.3,133.6
	c-0.1-3.3-1.2-6.1-3.5-8.4c-2.3-2.3-5-3.5-8.1-3.5c-3.3,0-6.1,1.2-8.4,3.5c-2.3,2.3-3.5,5.1-3.5,8.4c-0.1,3.3,1,6.1,3.2,8.6
	c2.2,2.4,4.9,3.7,8.1,3.9c3.4,0.1,6.3-1,8.7-3.6C90.2,140,91.3,137,91.3,133.6z"/>
<path class="st1" d="M125.2,118.4l-17.5,41.8h-4.4l4.6-11.8l-11.9-30h4.5l9.9,24.6l10.5-24.6H125.2z"/>
<path class="st1" d="M175.5,118.4l-11.6,31H159l-6.7-20.5l-6.3,20.5h-4.8l-11.7-31h4.4l9.7,25.8l7.2-22.1h3.5l7,21.8l9.8-25.6H175.5
	z"/>
<path class="st1" d="M211.2,135.3h-27.8c0.3,3.1,1.6,5.7,4,7.7c2.3,2,5.1,3,8.2,3c4.9-0.1,8.4-2.3,10.5-6.8h4.4
	c-1.2,3.3-3.1,6-5.9,7.9c-2.8,2-5.8,3-9.2,3c-4.2,0.1-8-1.5-11.2-4.6c-3.3-3.2-4.9-6.9-5-11.3c-0.1-4.6,1.5-8.6,4.9-12
	c3.4-3.3,7.4-4.9,12-4.6c4.1,0.3,7.7,2,10.8,5.1c2.9,3.1,4.4,6.6,4.4,10.4V135.3z M207.1,131.5c-0.6-2.9-1.9-5.2-4.1-7
	c-2.1-1.8-4.7-2.7-7.7-2.7c-3,0-5.6,0.9-7.8,2.7c-2.2,1.8-3.6,4.2-4.2,7.1H207.1z"/>
<path class="st1" d="M250,133.9c0,4.3-1.5,8.1-4.5,11.2c-3,3.2-6.7,4.8-11,4.9c-4.5,0.1-8.3-1.4-11.6-4.7c-3.3-3.3-4.9-7.1-4.8-11.6
	v-0.2v-26.1h4.1v15.6c3-3.5,6.8-5.3,11.4-5.5c4.4-0.2,8.3,1.4,11.5,4.6C248.4,125.6,250,129.4,250,133.9z M245.9,133.6
	c-0.1-3.3-1.3-6.1-3.6-8.4c-2.3-2.3-5.1-3.5-8.4-3.5c-3.2,0-5.9,1.2-8.1,3.5c-2.3,2.3-3.4,5.1-3.5,8.4c-0.1,3.4,1.1,6.4,3.5,9
	c2.4,2.5,5.3,3.7,8.7,3.6c3.2-0.1,5.9-1.4,8.1-3.9C244.8,139.8,245.9,136.9,245.9,133.6z"/>
</svg>
