<?xml version="1.0" encoding="utf-8"?>
<!-- Generator: Adobe Illustrator 25.0.0, SVG Export Plug-In . SVG Version: 6.00 Build 0)  -->
<svg version="1.1" id="Layer_1" xmlns="http://www.w3.org/2000/svg" xmlns:xlink="http://www.w3.org/1999/xlink" x="0px" y="0px"
	 width="250px" height="250px" viewBox="0 0 250 250" style="enable-background:new 0 0 250 250;" xml:space="preserve">
<style type="text/css">
	.st0{fill:#252C35;}
	.st1{fill:#EE4036;}
	.st2{fill:#FFFFFF;}
</style>
<circle class="st0" cx="125" cy="125" r="125"/>
<path class="st1" d="M125,121.7L125,121.7c-10.3,0-18.6-8.3-18.7-18.6c0-0.1,0-0.1,0-0.1v-0.3c-0.1-11.4-5.5-21.5-14-27.9
	c-6-4.7-13.5-7.4-21.7-7.4C51,67.3,35,83.3,35,103s16,35.6,35.6,35.6c10,0,19-4.1,25.5-10.8c-0.6-0.6-1.2-1.2-1.7-1.8
	c-3.5-4-6-8.9-7.3-14.1c-3.2,5.8-9.4,9.8-16.5,9.8c-10.4,0-18.7-8.4-18.7-18.7c0-10.4,8.4-18.7,18.7-18.7c10.2,0,18.6,8.2,18.7,18.4
	c0,0.1,0,0.2,0,0.3c0,0.1,0,0.1,0,0.1c0.1,8.7,3.2,16.7,8.4,22.9c6.6,7.7,16.3,12.6,27.2,12.6l0,0c0.1,0,0.1,0,0.1,0v-16.9
	C125.1,121.7,125.1,121.7,125,121.7z"/>
<path class="st2" d="M198.2,84.2v18.7c0,10.4-8.4,18.7-18.7,18.7c-10.2,0-18.5-8.1-18.7-18.2c0-0.1,0-0.4,0-0.5V67.3l0,0l0,0
	c-9.4,0-17,7.6-17,16.8v18.7c0,0.1,0,0.4,0,0.5c-0.2,9.1-7,16.6-15.8,18v17c9.7-0.8,18.3-5.5,24.3-12.5c6.6,7.7,16.3,12.6,27.1,12.6
	l0,0c19.7,0,35.6-16,35.6-35.6V67.3C205.7,67.3,198.2,74.9,198.2,84.2z"/>
<path class="st2" d="M57.9,163.7v0.1v11h-3v-3.5c-2.4,2.7-5.4,4.1-8.9,4c-3.1-0.1-5.7-1.3-7.8-3.5c-2.2-2.3-3.2-5-3.2-8.1
	c0-3.2,1.2-6,3.5-8.4c2.3-2.3,5.1-3.5,8.4-3.3c3.1,0.1,5.8,1.3,8,3.6C57,157.9,58,160.6,57.9,163.7z M54.9,163.5
	c-0.1-2.4-0.9-4.4-2.5-6c-1.7-1.7-3.6-2.5-5.8-2.5c-2.4,0-4.4,0.9-6,2.5c-1.7,1.7-2.5,3.7-2.5,6c-0.1,2.4,0.7,4.4,2.3,6.2
	c1.6,1.7,3.5,2.7,5.8,2.8c2.4,0.1,4.5-0.7,6.3-2.6C54.2,168.1,55,166,54.9,163.5z"/>
<path class="st2" d="M66,174.9h-3v-30.2h3V174.9z"/>
<path class="st2" d="M79.4,175.4c-5.4,0-8.1-2.3-8.1-6.9v-23.7h3v7.8h5.2v2.8h-5.2V168c0,3.3,1.7,5,5.2,5V175.4z"/>
<path class="st2" d="M103.7,163.7v0.1v11h-3v-3.5c-2.4,2.7-5.4,4.1-8.9,4c-3.1-0.1-5.7-1.3-7.8-3.5c-2.2-2.3-3.2-5-3.2-8.1
	c0-3.2,1.2-6,3.5-8.4c2.3-2.3,5.1-3.5,8.4-3.3c3.1,0.1,5.8,1.3,8,3.6C102.8,157.9,103.8,160.6,103.7,163.7z M100.7,163.5
	c-0.1-2.4-0.9-4.4-2.5-6c-1.7-1.7-3.6-2.5-5.8-2.5c-2.4,0-4.4,0.9-6,2.5c-1.7,1.7-2.5,3.7-2.5,6c-0.1,2.4,0.7,4.4,2.3,6.2
	c1.6,1.7,3.5,2.7,5.8,2.8c2.4,0.1,4.5-0.7,6.3-2.6C99.9,168.1,100.7,166,100.7,163.5z"/>
<path class="st2" d="M125.1,152.6l-12.6,30.1h-3.2l3.3-8.5l-8.6-21.6h3.2l7.1,17.7l7.6-17.7H125.1z"/>
<path class="st2" d="M161.4,152.6l-8.4,22.3h-3.5l-4.8-14.8l-4.5,14.8h-3.5l-8.4-22.3h3.2l7,18.6l5.2-15.9h2.5l5,15.7l7.1-18.4
	L161.4,152.6L161.4,152.6L161.4,152.6z"/>
<path class="st2" d="M187.1,164.7h-20c0.2,2.2,1.2,4.1,2.9,5.5c1.7,1.4,3.7,2.2,5.9,2.2c3.5-0.1,6-1.7,7.6-4.9h3.2
	c-0.9,2.4-2.2,4.3-4.2,5.7c-2,1.4-4.2,2.2-6.6,2.2c-3,0.1-5.8-1.1-8.1-3.3c-2.4-2.3-3.5-5-3.6-8.1c-0.1-3.3,1.1-6.2,3.5-8.6
	c2.4-2.4,5.3-3.5,8.6-3.3c3,0.2,5.5,1.4,7.8,3.7c2.1,2.2,3.2,4.8,3.2,7.5L187.1,164.7L187.1,164.7z M184.1,162c-0.4-2.1-1.4-3.7-3-5
	c-1.5-1.3-3.4-1.9-5.5-1.9c-2.2,0-4,0.6-5.6,1.9s-2.6,3-3,5.1L184.1,162L184.1,162z"/>
<path class="st2" d="M215,163.7c0,3.1-1.1,5.8-3.2,8.1c-2.2,2.3-4.8,3.5-7.9,3.5c-3.2,0.1-6-1-8.4-3.4c-2.4-2.4-3.5-5.1-3.5-8.4
	v-0.1v-18.8h3v11.2c2.2-2.5,4.9-3.8,8.2-4c3.2-0.1,6,1,8.3,3.3C213.8,157.8,215,160.5,215,163.7z M212,163.5c-0.1-2.4-0.9-4.4-2.6-6
	c-1.7-1.7-3.7-2.5-6-2.5c-2.3,0-4.2,0.9-5.8,2.5c-1.7,1.7-2.4,3.7-2.5,6c-0.1,2.4,0.8,4.6,2.5,6.5c1.7,1.8,3.8,2.7,6.3,2.6
	c2.3-0.1,4.2-1,5.8-2.8C211.3,168,212,165.9,212,163.5z"/>
</svg>
